# xmcd
#
# Track frame offsets:
#	150
#	15842
#	33464
#	44352
#	62446
#	82338
#	102659
#	122555
#	141168
#	157649
#	177010
#	197827
#	215155
#	235122
#
# Disc length: 3455 seconds
# Revision: 0
# Processed by: cddbd v1.5.1PL0 Copyright (c) Steve Scherf et al.
# Submitted via: cdrLabel 7.1
#
DISCID=b80d7d0e
DTITLE=Faith Hill - Fireflies
DYEAR=2005
DGENRE=Country
TTITLE0=Sunshine and Summertime
TTITLE1=Mississippi Girl
TTITLE2=Dearly Beloved
TTITLE3=I Aint Gonna Take It Anymore
TTITLE4=Stealing Kisses
TTITLE5=Fireflies
TTITLE6=Like We Never Loved Before (Feat. Tim McGraw)
TTITLE7=I Want You
TTITLE8=The Lucky One
TTITLE9=If You Ask
TTITLE10=We've Got Nothing But Love To Prove
TTITLE11=You Stay With Me
TTITLE12=Wish For You
TTITLE13=Paris
EXTD=
EXTT0=
EXTT1=
EXTT2=
EXTT3=
EXTT4=
EXTT5=
EXTT6=
EXTT7=
EXTT8=
EXTT9=
EXTT10=
EXTT11=
EXTT12=
EXTT13=
PLAYORDER=
